%TF.GenerationSoftware,KiCad,Pcbnew,9.0.6-9.0.6~ubuntu24.04.1*%
%TF.CreationDate,2025-11-28T02:04:29-03:00*%
%TF.ProjectId,arduino_isp,61726475-696e-46f5-9f69-73702e6b6963,rev?*%
%TF.SameCoordinates,Original*%
%TF.FileFunction,Copper,L1,Top*%
%TF.FilePolarity,Positive*%
%FSLAX46Y46*%
G04 Gerber Fmt 4.6, Leading zero omitted, Abs format (unit mm)*
G04 Created by KiCad (PCBNEW 9.0.6-9.0.6~ubuntu24.04.1) date 2025-11-28 02:04:29*
%MOMM*%
%LPD*%
G01*
G04 APERTURE LIST*
%TA.AperFunction,ComponentPad*%
%ADD10R,1.800000X1.800000*%
%TD*%
%TA.AperFunction,ComponentPad*%
%ADD11C,1.800000*%
%TD*%
%TA.AperFunction,ComponentPad*%
%ADD12C,1.600000*%
%TD*%
%TA.AperFunction,ComponentPad*%
%ADD13R,1.700000X1.700000*%
%TD*%
%TA.AperFunction,ComponentPad*%
%ADD14C,1.700000*%
%TD*%
%TA.AperFunction,Conductor*%
%ADD15C,0.200000*%
%TD*%
G04 APERTURE END LIST*
D10*
%TO.P,D1,1,K*%
%TO.N,Net-(D1-K)*%
X143000000Y-69500000D03*
D11*
%TO.P,D1,2,A*%
%TO.N,Net-(D1-A)*%
X143000000Y-66960000D03*
%TD*%
D10*
%TO.P,D2,1,K*%
%TO.N,Net-(D2-K)*%
X128000000Y-69500000D03*
D11*
%TO.P,D2,2,A*%
%TO.N,Net-(D2-A)*%
X128000000Y-66960000D03*
%TD*%
D10*
%TO.P,D3,1,K*%
%TO.N,Net-(D3-K)*%
X113000000Y-69500000D03*
D11*
%TO.P,D3,2,A*%
%TO.N,Net-(D3-A)*%
X113000000Y-66960000D03*
%TD*%
D12*
%TO.P,R2,1*%
%TO.N,GND*%
X128000000Y-84580000D03*
%TO.P,R2,2*%
%TO.N,Net-(D2-K)*%
X128000000Y-74420000D03*
%TD*%
%TO.P,R1,1*%
%TO.N,GND*%
X143000000Y-84580000D03*
%TO.P,R1,2*%
%TO.N,Net-(D1-K)*%
X143000000Y-74420000D03*
%TD*%
D13*
%TO.P,J2,1,Pin_1*%
%TO.N,/SCK*%
X127525000Y-47420000D03*
D14*
%TO.P,J2,2,Pin_2*%
%TO.N,/MISO*%
X127525000Y-49960000D03*
%TO.P,J2,3,Pin_3*%
%TO.N,/MOSI*%
X127525000Y-52500000D03*
%TO.P,J2,4,Pin_4*%
%TO.N,/SS*%
X127525000Y-55040000D03*
%TO.P,J2,5,Pin_5*%
%TO.N,+5V*%
X127525000Y-57580000D03*
%TO.P,J2,6,Pin_6*%
%TO.N,GND*%
X127525000Y-60120000D03*
%TD*%
D13*
%TO.P,J1,1,Pin_1*%
%TO.N,unconnected-(J1-Pin_1-Pad1)*%
X97000000Y-70240000D03*
D14*
%TO.P,J1,2,Pin_2*%
%TO.N,Net-(D3-A)*%
X97000000Y-67700000D03*
%TO.P,J1,3,Pin_3*%
%TO.N,Net-(D2-A)*%
X97000000Y-65160000D03*
%TO.P,J1,4,Pin_4*%
%TO.N,Net-(D1-A)*%
X97000000Y-62620000D03*
%TO.P,J1,5,Pin_5*%
%TO.N,GND*%
X97000000Y-60080000D03*
%TO.P,J1,6,Pin_6*%
%TO.N,+5V*%
X97000000Y-57540000D03*
%TO.P,J1,7,Pin_7*%
%TO.N,/SS*%
X97000000Y-55000000D03*
%TO.P,J1,8,Pin_8*%
%TO.N,/MOSI*%
X97000000Y-52460000D03*
%TO.P,J1,9,Pin_9*%
%TO.N,/MISO*%
X97000000Y-49920000D03*
%TO.P,J1,10,Pin_10*%
%TO.N,/SCK*%
X97000000Y-47380000D03*
%TD*%
D12*
%TO.P,R3,1*%
%TO.N,GND*%
X113000000Y-84580000D03*
%TO.P,R3,2*%
%TO.N,Net-(D3-K)*%
X113000000Y-74420000D03*
%TD*%
D15*
%TO.N,Net-(D1-K)*%
X143000000Y-69500000D02*
X143000000Y-74420000D01*
%TO.N,Net-(D1-A)*%
X143000000Y-66960000D02*
X138660000Y-62620000D01*
X138660000Y-62620000D02*
X97000000Y-62620000D01*
%TO.N,Net-(D2-K)*%
X128000000Y-69500000D02*
X128000000Y-74420000D01*
%TO.N,Net-(D2-A)*%
X126200000Y-65160000D02*
X97000000Y-65160000D01*
X128000000Y-66960000D02*
X126200000Y-65160000D01*
%TO.N,Net-(D3-A)*%
X97000000Y-67700000D02*
X112260000Y-67700000D01*
X112260000Y-67700000D02*
X113000000Y-66960000D01*
%TO.N,Net-(D3-K)*%
X113000000Y-69500000D02*
X113000000Y-74420000D01*
%TO.N,+5V*%
X127445000Y-57500000D02*
X127525000Y-57580000D01*
X97000000Y-57500000D02*
X127445000Y-57500000D01*
%TO.N,/SCK*%
X97000000Y-47340000D02*
X127445000Y-47340000D01*
X127445000Y-47340000D02*
X127525000Y-47420000D01*
%TO.N,/SS*%
X127445000Y-54960000D02*
X127525000Y-55040000D01*
X97000000Y-54960000D02*
X127445000Y-54960000D01*
%TO.N,/MOSI*%
X97000000Y-52420000D02*
X127445000Y-52420000D01*
X127445000Y-52420000D02*
X127525000Y-52500000D01*
%TO.N,/MISO*%
X127445000Y-49880000D02*
X127525000Y-49960000D01*
X97000000Y-49880000D02*
X127445000Y-49880000D01*
X127525000Y-49960000D02*
X127960000Y-49960000D01*
%TD*%
M02*
